<svg xmlns="http://www.w3.org/2000/svg" width="128" height="128" viewBox="0 0 128 128">
    <defs>
      <linearGradient id="navy" x1="0" y1="0" x2="1" y2="1"><stop offset="0" stop-color="#071a33" stop-opacity="0.96"/><stop offset="1" stop-color="#04101f" stop-opacity="0.94"/></linearGradient>
      <linearGradient id="blueEdge" x1="0" y1="0" x2="1" y2="0"><stop offset="0" stop-color="#4cc3ff"/><stop offset="0.5" stop-color="#6da5d8"/><stop offset="1" stop-color="#ffbf43"/></linearGradient>
      <linearGradient id="red" x1="0" y1="0" x2="1" y2="0"><stop offset="0" stop-color="#ff1738"/><stop offset="1" stop-color="#b50929"/></linearGradient>
      <linearGradient id="gold" x1="0" y1="0" x2="1" y2="0"><stop offset="0" stop-color="#ffb52e"/><stop offset="1" stop-color="#ffe29a"/></linearGradient>
      <filter id="shadow"><feDropShadow dx="0" dy="8" stdDeviation="10" flood-color="#000" flood-opacity="0.55"/></filter>
      <filter id="glow"><feDropShadow dx="0" dy="0" stdDeviation="5" flood-color="#40b7ff" flood-opacity="0.55"/></filter>
    </defs><g fill="none" stroke="#49caff" stroke-width="8" stroke-linecap="round" stroke-linejoin="round"><path d="M49 26c-19 0-25 13-21 24-10 10-7 28 7 33-2 15 9 26 22 22V28c-2-1-5-2-8-2zM79 26c19 0 25 13 21 24 10 10 7 28-7 33 2 15-9 26-22 22V28c2-1 5-2 8-2z"/></g></svg>